<svg width="46" height="34" viewBox="0 0 46 34" fill="none" xmlns="http://www.w3.org/2000/svg">
<path id="Vector" fill-rule="evenodd" clip-rule="evenodd" d="M16.2565 20.0237L22.6712 24.4097L28.8547 20.1439L42.7153 33.8187C42.3504 33.9365 41.9605 34 41.5548 34H3.77854C3.27987 34 2.80387 33.9025 2.3664 33.728L16.2565 20.0237ZM45.3333 8.7856V30.2215C45.3333 30.7813 45.2109 31.3117 44.9933 31.79L31.4069 18.3849L45.3333 8.7856ZM2.13883e-06 8.90573L13.6952 18.2716L0.240269 31.5497C0.0809126 31.125 -0.000481062 30.6751 2.13883e-06 30.2215V8.90573ZM41.5548 0C43.6401 0 45.3333 1.69093 45.3333 3.77853V5.1068L22.6621 20.7355L2.13883e-06 5.236V3.77853C2.13883e-06 1.6932 1.69094 0 3.77854 0H41.5548Z" fill="white"/>
</svg>
