<svg width="17" height="17" viewBox="0 0 17 17" fill="none" xmlns="http://www.w3.org/2000/svg">
<path d="M4.92511 0H12.058C14.7753 0 16.9831 2.20781 16.9831 4.92511V12.058C16.9831 13.3643 16.4642 14.617 15.5406 15.5406C14.617 16.4642 13.3643 16.9831 12.058 16.9831H4.92511C2.20781 16.9831 0 14.7753 0 12.058V4.92511C0 3.61889 0.518894 2.36617 1.44253 1.44253C2.36617 0.518894 3.61889 0 4.92511 0ZM4.75528 1.69831C3.94452 1.69831 3.16697 2.02039 2.59368 2.59368C2.02039 3.16697 1.69831 3.94452 1.69831 4.75528V12.2279C1.69831 13.9177 3.06546 15.2848 4.75528 15.2848H12.2279C13.0386 15.2848 13.8162 14.9628 14.3895 14.3895C14.9628 13.8162 15.2848 13.0386 15.2848 12.2279V4.75528C15.2848 3.06546 13.9177 1.69831 12.2279 1.69831H4.75528ZM12.9496 2.97205C13.2312 2.97205 13.5011 3.08388 13.7002 3.28294C13.8993 3.482 14.0111 3.75198 14.0111 4.0335C14.0111 4.31501 13.8993 4.58499 13.7002 4.78405C13.5011 4.98311 13.2312 5.09494 12.9496 5.09494C12.6681 5.09494 12.3981 4.98311 12.1991 4.78405C12 4.58499 11.8882 4.31501 11.8882 4.0335C11.8882 3.75198 12 3.482 12.1991 3.28294C12.3981 3.08388 12.6681 2.97205 12.9496 2.97205ZM8.49157 4.24579C9.61762 4.24579 10.6976 4.69311 11.4938 5.48935C12.29 6.28559 12.7374 7.36552 12.7374 8.49157C12.7374 9.61762 12.29 10.6976 11.4938 11.4938C10.6976 12.29 9.61762 12.7374 8.49157 12.7374C7.36552 12.7374 6.28559 12.29 5.48935 11.4938C4.69311 10.6976 4.24579 9.61762 4.24579 8.49157C4.24579 7.36552 4.69311 6.28559 5.48935 5.48935C6.28559 4.69311 7.36552 4.24579 8.49157 4.24579ZM8.49157 5.9441C7.81594 5.9441 7.16798 6.21249 6.69024 6.69024C6.21249 7.16798 5.9441 7.81594 5.9441 8.49157C5.9441 9.1672 6.21249 9.81516 6.69024 10.2929C7.16798 10.7706 7.81594 11.039 8.49157 11.039C9.1672 11.039 9.81516 10.7706 10.2929 10.2929C10.7706 9.81516 11.039 9.1672 11.039 8.49157C11.039 7.81594 10.7706 7.16798 10.2929 6.69024C9.81516 6.21249 9.1672 5.9441 8.49157 5.9441Z" fill="white"/>
</svg>
