<svg width="16" height="16" viewBox="0 0 16 16" fill="none" xmlns="http://www.w3.org/2000/svg">
<path d="M14.3014 0.546875C14.7518 0.546875 15.1837 0.725804 15.5022 1.0443C15.8207 1.3628 15.9997 1.79477 15.9997 2.24519V14.1334C15.9997 14.5838 15.8207 15.0158 15.5022 15.3343C15.1837 15.6528 14.7518 15.8317 14.3014 15.8317H2.41316C1.96274 15.8317 1.53076 15.6528 1.21227 15.3343C0.893773 15.0158 0.714844 14.5838 0.714844 14.1334V2.24519C0.714844 1.79477 0.893773 1.3628 1.21227 1.0443C1.53076 0.725804 1.96274 0.546875 2.41316 0.546875H14.3014ZM13.8768 13.7088V9.20828C13.8768 8.47409 13.5851 7.76997 13.066 7.25083C12.5468 6.73168 11.8427 6.44002 11.1085 6.44002C10.3867 6.44002 9.54608 6.88159 9.13848 7.54393V6.60136H6.76933V13.7088H9.13848V9.52246C9.13848 8.86861 9.66496 8.33364 10.3188 8.33364C10.6341 8.33364 10.9365 8.45889 11.1594 8.68184C11.3824 8.90479 11.5076 9.20717 11.5076 9.52246V13.7088H13.8768ZM4.00957 5.26819C4.38793 5.26819 4.75078 5.11789 5.01832 4.85035C5.28586 4.58282 5.43616 4.21996 5.43616 3.8416C5.43616 3.05189 4.79929 2.40653 4.00957 2.40653C3.62897 2.40653 3.26395 2.55772 2.99482 2.82685C2.72569 3.09598 2.5745 3.461 2.5745 3.8416C2.5745 4.63132 3.21986 5.26819 4.00957 5.26819ZM5.1899 13.7088V6.60136H2.83774V13.7088H5.1899Z" fill="white"/>
</svg>
