<svg width="15" height="16" viewBox="0 0 15 16" fill="none" xmlns="http://www.w3.org/2000/svg">
<path d="M11.5069 2.9415C10.9264 2.27883 10.6065 1.42782 10.6068 0.546875H7.98287V11.0764C7.96263 11.6462 7.72207 12.1859 7.31184 12.5819C6.90161 12.9779 6.35372 13.1992 5.78355 13.1993C4.57775 13.1993 3.57575 12.2143 3.57575 10.9915C3.57575 9.53096 4.98535 8.43554 6.43741 8.8856V6.20226C3.50781 5.81165 0.943359 8.08739 0.943359 10.9915C0.943359 13.8192 3.28703 15.8317 5.77506 15.8317C8.44142 15.8317 10.6068 13.6664 10.6068 10.9915V5.65031C11.6708 6.41442 12.9482 6.82439 14.2581 6.82215V4.19825C14.2581 4.19825 12.6617 4.27467 11.5069 2.9415Z" fill="white"/>
</svg>
