<svg width="19" height="15" viewBox="0 0 19 15" fill="none" xmlns="http://www.w3.org/2000/svg">
<path d="M18.2058 2.24519C17.5519 2.54239 16.8471 2.7377 16.1168 2.83111C16.8641 2.38105 17.4415 1.66776 17.7133 0.810114C17.0085 1.23469 16.2272 1.5319 15.4036 1.70173C14.7327 0.971454 13.7902 0.546875 12.7202 0.546875C10.7247 0.546875 9.09432 2.17726 9.09432 4.18976C9.09432 4.47847 9.12828 4.75869 9.18772 5.02193C6.16472 4.86908 3.4729 3.41703 1.68118 1.21771C1.36699 1.75268 1.18866 2.38105 1.18866 3.0434C1.18866 4.30864 1.82553 5.42953 2.81055 6.06639C2.20765 6.06639 1.64721 5.89656 1.1547 5.64182V5.66729C1.1547 7.43354 2.41145 8.91107 4.0758 9.24224C3.54145 9.38847 2.98047 9.40882 2.43693 9.30168C2.66756 10.0256 3.11925 10.659 3.72851 11.1129C4.33776 11.5668 5.07394 11.8183 5.83355 11.8322C4.54592 12.8515 2.94981 13.4025 1.30755 13.3946C1.01883 13.3946 0.73012 13.3776 0.441406 13.3437C2.0548 14.3796 3.9739 14.9825 6.02886 14.9825C12.7202 14.9825 16.3971 9.42906 16.3971 4.61434C16.3971 4.453 16.3971 4.30015 16.3886 4.13881C17.1019 3.62931 17.7133 2.98396 18.2058 2.24519Z" fill="white"/>
</svg>
