<svg width="18" height="13" viewBox="0 0 18 13" fill="none" xmlns="http://www.w3.org/2000/svg">
<path d="M7.7874 8.73766L12.1945 6.19019L7.7874 3.64272V8.73766ZM17.6037 2.08876C17.714 2.48787 17.7905 3.02284 17.8414 3.70216C17.9009 4.38149 17.9263 4.96741 17.9263 5.4769L17.9773 6.19019C17.9773 8.04985 17.8414 9.41699 17.6037 10.2916C17.3914 11.0559 16.8989 11.5484 16.1346 11.7607C15.7355 11.8711 15.0052 11.9475 13.8843 11.9984C12.7804 12.0579 11.7699 12.0833 10.8359 12.0833L9.48571 12.1343C5.92774 12.1343 3.71144 11.9984 2.83681 11.7607C2.07257 11.5484 1.58006 11.0559 1.36777 10.2916C1.25738 9.89252 1.18096 9.35755 1.13001 8.67822C1.07056 7.9989 1.04509 7.41298 1.04509 6.90348L0.994141 6.19019C0.994141 4.33054 1.13001 2.9634 1.36777 2.08876C1.58006 1.32452 2.07257 0.832012 2.83681 0.619723C3.23592 0.509332 3.96619 0.432908 5.08708 0.381959C6.19098 0.322518 7.20148 0.297043 8.13555 0.297043L9.48571 0.246094C13.0437 0.246094 15.26 0.381959 16.1346 0.619723C16.8989 0.832012 17.3914 1.32452 17.6037 2.08876Z" fill="white"/>
</svg>
